<svg
            xmlns="http://www.w3.org/2000/svg"
            width="99"
            height="34"
            viewBox="0 0 99 34"
            fill="none"
          >
            <g clip-path="url(#clip0_130_1762)">
              <path
                d="M49.3718 0.0578991C17.1062 0.0578991 0 23.4578 0 23.4578L7.0118 28.3004C7.0118 28.3004 7.85965 26.1299 9.80265 23.0245C9.81049 23.8028 9.91517 24.3458 9.91517 24.3458C11.1542 34.1781 20.5003 33.9414 20.5003 33.9414H78.4382C78.4382 33.9414 87.9086 34.2075 89.145 24.3819C89.145 24.3819 89.2458 23.8751 89.251 23.1021C91.1547 26.1299 91.9921 28.2349 91.9921 28.2349L99 23.4431C99 23.4431 81.6347 0.0578991 49.3718 0.0578991Z"
                fill="#ED1C24"
              />
              <path
                d="M87.7113 24.2336C87.7113 24.2336 86.4487 31.7523 78.3169 31.7523H20.4731C12.3426 31.7523 11.1978 24.1641 11.1978 24.1641C10.885 22.15 11.2658 20.7712 11.8742 19.8176C17.7294 11.9392 29.3154 1.35797 49.3459 1.35797C69.5466 1.35797 81.2307 12.0917 87.0833 19.9714C87.7597 20.8501 88.0136 22.2837 87.7113 24.2336Z"
                fill="white"
              />
              <path
                d="M32.4774 16.037L33.443 13.9226H21.0693L20.0985 16.037H24.8925L19.9297 26.3521H23.134L28.0942 16.037H32.4774Z"
                fill="#ED1C24"
              />
              <path
                d="M77.1627 22.9302C76.2428 24.2542 74.9397 24.9255 74.2501 24.4254C73.5619 23.9239 73.7516 22.4461 74.6714 21.1221C75.5912 19.7981 76.897 19.1254 77.584 19.6256C78.2748 20.1284 78.0825 21.6062 77.1627 22.9302ZM66.3329 22.8794C65.4079 24.206 64.1047 24.8747 63.4164 24.3746C62.7321 23.8744 62.9153 22.3966 63.8377 21.0699C64.7615 19.7459 66.0673 19.0759 66.7516 19.5747C67.4359 20.0749 67.2527 21.5554 66.3329 22.8794ZM52.8745 21.9165C52.8745 21.9165 53.4738 19.8609 55.4129 19.0385C55.4129 19.0385 55.965 18.8472 56.2607 19.0946C56.2607 19.0946 56.6755 19.5025 56.1822 20.2581C55.74 20.9322 54.6775 22.1519 53.5248 22.5624C53.5248 22.5624 52.4794 23.0292 52.8745 21.9165ZM33.9823 22.8794C33.0573 24.206 31.7567 24.8747 31.0698 24.3746C30.3815 23.8744 30.566 22.3966 31.4858 21.0699C32.4083 19.7459 33.7141 19.0759 34.401 19.5747C35.0918 20.0749 34.8995 21.5554 33.9823 22.8794ZM80.2453 24.4896C80.2453 24.4896 79.6212 24.7865 79.3529 24.5003C79.0847 24.2167 79.3242 23.6885 79.3242 23.6885L81.9384 18.0702H79.2731L78.8649 18.8205C77.3079 17.4202 74.3797 18.1438 72.5662 20.0816C71.5181 21.1983 70.9254 22.5236 70.8456 23.6764C70.5486 23.8771 70.0527 24.1833 69.4142 24.4401C69.4142 24.4401 68.7888 24.7397 68.518 24.4508C68.2497 24.1673 68.4918 23.6363 68.4918 23.6363L73.1327 13.8736H70.4701L68.0325 18.7697C66.4755 17.3721 63.5499 18.0929 61.7325 20.0308C61.3648 20.428 61.0561 20.8439 60.7996 21.2719L60.8022 21.2625C60.7852 21.2973 60.7669 21.3347 60.7486 21.3668C60.6897 21.4685 60.6334 21.5661 60.585 21.665C59.1366 24.2301 57.3349 24.6554 57.3349 24.6554C53.5274 25.8189 53.093 23.9132 53.093 23.9132C57.3572 22.3016 58.96 20.3932 58.8121 18.9328C58.6682 17.4711 56.7056 17.3948 56.7056 17.3948C53.4803 17.1969 50.6882 19.5025 50.0104 21.7587C49.8063 22.4461 49.7422 23.1522 49.8678 23.7955C48.5764 24.4989 47.8332 24.6113 47.8332 24.6113C46.7603 24.9576 46.6268 24.4374 46.4999 24.1205C46.3691 23.7955 45.8837 20.9883 45.8837 20.9883L50.4121 17.9605H47.6422L44.2403 20.1164C43.4736 20.4414 43.7706 19.6175 43.7706 19.6175L46.5483 13.8695H43.8805L39.3743 23.2017C38.8562 23.52 37.8186 24.1352 37.0623 24.4401C37.0623 24.4401 36.4382 24.7397 36.17 24.4508C35.8965 24.1673 36.1399 23.6363 36.1399 23.6363L38.7567 18.0194H36.0902L35.6819 18.7696C34.1262 17.3721 31.1967 18.0929 29.3832 20.0308C27.5658 21.97 27.1027 24.527 28.3457 25.7427C29.3387 26.7149 31.126 26.5331 32.7302 25.4297C32.7302 25.4297 33.1345 25.074 33.3543 25.4899C33.5806 25.9232 34.4991 26.9022 36.6148 26.0489C37.2939 25.7774 37.9023 25.4645 38.4244 25.1703L37.8722 26.3124H40.5349L41.8708 23.5534L43.0313 22.7978C43.0313 22.7978 43.3872 22.5116 43.5272 23.1228C43.5272 23.1228 44.1042 25.4458 44.3266 25.7454C44.5517 26.0489 44.9966 26.735 46.8702 26.1853C48.3055 25.7614 49.6427 25.2425 50.3506 24.9336C50.9773 25.8189 52.1798 26.4167 54.1607 26.4167C57.0811 26.4167 59.1471 24.9911 60.0185 24.2488C60.0813 24.84 60.3037 25.3589 60.6975 25.7427C61.6893 26.7149 63.4753 26.5331 65.0781 25.4297C65.0781 25.4297 65.4837 25.074 65.7062 25.4899C65.9338 25.9232 66.8484 26.9022 68.9667 26.0489C69.9389 25.6571 70.5879 25.2826 71.0144 24.9911C71.1296 25.2987 71.2983 25.5675 71.5273 25.7948C72.5243 26.7631 74.3077 26.5839 75.9105 25.4779C75.9105 25.4779 76.3174 25.1208 76.5399 25.5407C76.7636 25.974 77.6847 26.9543 79.7978 26.0984C81.9161 25.2465 82.5219 24.4735 82.5219 24.4735L81.9881 23.5106C81.9135 23.5534 81.2619 24.0817 80.2453 24.4896Z"
                fill="#ED1C24"
              />
            </g>
            <defs>
              <clipPath id="clip0_130_1762">
                <rect width="99" height="34" fill="white" />
              </clipPath>
            </defs>
          </svg>